<?xml version="1.0" encoding="utf-8"?>
<!-- Generator: Adobe Illustrator 13.0.0, SVG Export Plug-In . SVG Version: 6.00 Build 14948)  -->
<!DOCTYPE svg PUBLIC "-//W3C//DTD SVG 1.1//EN" "http://www.w3.org/Graphics/SVG/1.1/DTD/svg11.dtd">
<svg version="1.1" xmlns="http://www.w3.org/2000/svg" xmlns:xlink="http://www.w3.org/1999/xlink" x="0px" y="0px" width="595px"
	 height="595px" viewBox="0 0 595 595" enable-background="new 0 0 595 595" xml:space="preserve">
<g id="Слой_3">
	<path d="M500.726,11.831H92.916c-45.542,0-82.594,37.052-82.594,82.595v407.811c0,45.543,37.053,82.596,82.594,82.596h407.81
		c45.543,0,82.595-37.053,82.595-82.596V94.425C583.32,48.883,546.269,11.831,500.726,11.831z"/>
	
		<linearGradient id="SVGID_1_" gradientUnits="userSpaceOnUse" x1="295.9243" y1="-124.4932" x2="295.9243" y2="-231.4971" gradientTransform="matrix(1 0 0 -1 0 342.0029)">
		<stop  offset="0" style="stop-color:#000000"/>
		<stop  offset="0.2467" style="stop-color:#040404"/>
		<stop  offset="0.5165" style="stop-color:#121212"/>
		<stop  offset="0.7817" style="stop-color:#262626"/>
		<stop  offset="0.9001" style="stop-color:#131313"/>
		<stop  offset="0.9949" style="stop-color:#000000"/>
	</linearGradient>
	<path fill="url(#SVGID_1_)" d="M293.269,466.496c-82.866,0-145.497,8.176-186.152,24.297
		c-41.693,16.535-47.919,36.873-47.919,47.523c0,8.902,4.063,17.527,11.44,24.285c7.674,7.027,17.742,10.898,28.35,10.898h395
		c20.867,0,38.571-15.52,38.663-33.889c0.054-10.729-6.176-31.246-48.503-48.111c-41.391-16.492-105.12-24.904-189.418-25.002
		L293.269,466.496L293.269,466.496z"/>
	<linearGradient id="SVGID_2_" gradientUnits="userSpaceOnUse" x1="295.9243" y1="327.4995" x2="295.9243" y2="20.4971">
		<stop  offset="0" style="stop-color:#000000"/>
		<stop  offset="0.156" style="stop-color:#040404"/>
		<stop  offset="0.327" style="stop-color:#121212"/>
		<stop  offset="0.505" style="stop-color:#282828"/>
		<stop  offset="0.6867" style="stop-color:#464646"/>
		<stop  offset="0.7817" style="stop-color:#595959"/>
		<stop  offset="0.8384" style="stop-color:#464646"/>
		<stop  offset="0.9534" style="stop-color:#141414"/>
		<stop  offset="0.9949" style="stop-color:#000000"/>
	</linearGradient>
	<path fill="url(#SVGID_2_)" d="M293.269,327.5c-82.866,0-145.497-23.837-186.152-70.847
		c-41.693-48.21-47.919-107.51-47.919-138.567c0-25.961,4.063-51.109,11.44-70.811c7.674-20.491,17.742-26.778,28.35-26.778h395
		c20.867,0,38.571,40.25,38.663,93.812c0.054,31.283-6.176,91.107-48.503,140.285c-41.391,48.087-105.12,72.616-189.418,72.904
		L293.269,327.5L293.269,327.5z"/>
</g>
<g id="abstract">
	<g>
		<g>
			<path fill="#FBB03B" d="M304.131,451.004c-31.773,0-63.076-12.226-88.137-34.423c-25.3-22.407-42.675-53.701-48.924-88.116
				c-14.495-79.798,33.509-155.58,107.007-168.931c7.432-1.349,15.007-2.033,22.518-2.033c31.773,0,63.073,12.226,88.137,34.423
				c25.298,22.407,42.673,53.701,48.923,88.118c0.039,0.209,0.075,0.429,0.11,0.646l0.063,0.378
				c0.216,1.234-0.563,2.422-1.777,2.717c-0.188,0.046-0.377,0.067-0.563,0.067c-1.017,0-1.949-0.653-2.268-1.663
				c-8.32-26.425-23.75-49.068-44.624-65.481c-20.301-15.967-44.774-24.758-68.911-24.758c-8.632,0-17.258,1.103-25.639,3.276
				c-60.354,15.653-95.211,83.31-77.702,150.817c7.224,27.856,22.886,52.89,44.097,70.488c20.847,17.298,46.23,26.825,71.472,26.825
				c0.96,0,1.92-0.015,2.882-0.042c0.023,0,0.044,0,0.067,0c1.196,0,2.211,0.889,2.359,2.085c0.148,1.215-0.65,2.347-1.848,2.612
				c-1.809,0.397-3.311,0.705-4.725,0.96C319.217,450.32,311.642,451.004,304.131,451.004L304.131,451.004z"/>
			<path fill="#1A1A1A" d="M296.594,159.877c64.022,0.002,121.904,50.009,134.723,120.589c0.063,0.336,0.111,0.672,0.171,1.008
				c-17.367-55.162-65.155-91.902-115.801-91.902c-8.705,0-17.503,1.087-26.237,3.353c-61.722,16.009-97.273,84.829-79.407,153.714
				c15.339,59.137,65.052,99.093,117.871,99.093c0.979,0,1.966-0.015,2.946-0.042c-1.535,0.338-3.078,0.66-4.637,0.943
				c-7.407,1.346-14.787,1.996-22.092,1.996c-64.022,0-121.905-50.009-134.725-120.59c-14.283-78.636,32.77-153.03,105.094-166.167
				C281.908,160.527,289.289,159.876,296.594,159.877L296.594,159.877z M296.594,155.124c-7.65,0-15.369,0.697-22.942,2.072
				c-36.303,6.594-67.624,28.135-88.192,60.657c-20.489,32.395-27.85,71.828-20.729,111.036
				c6.346,34.937,23.992,66.712,49.687,89.471c25.498,22.584,57.359,35.022,89.715,35.022c7.651,0,15.37-0.697,22.941-2.072
				c1.43-0.26,2.958-0.57,4.809-0.979c2.395-0.526,3.995-2.788,3.696-5.222c-0.294-2.389-2.323-4.173-4.716-4.173
				c-0.045,0-0.091,0.001-0.136,0.002c-0.93,0.026-1.876,0.039-2.813,0.039c-52.103,0-98.681-39.284-113.27-95.532
				c-17.18-66.238,16.913-132.595,75.999-147.92c8.187-2.124,16.613-3.2,25.043-3.2c49.092,0,94.847,36.424,111.268,88.577
				c0.635,2.018,2.501,3.326,4.53,3.326c0.375,0,0.756-0.044,1.136-0.138c2.434-0.597,3.986-2.981,3.547-5.449
				c-0.022-0.128-0.044-0.256-0.064-0.385c-0.036-0.219-0.072-0.438-0.112-0.657c-6.343-34.92-23.987-66.694-49.683-89.453
				C360.811,167.563,328.949,155.125,296.594,155.124L296.594,155.124z"/>
		</g>
		<g>
			<path fill="#808080" d="M328.597,446.28c-25.704,0-51.519-9.68-72.688-27.253c-21.452-17.808-37.29-43.126-44.594-71.293
				c-17.749-68.422,17.755-137.045,79.145-152.969c8.555-2.22,17.358-3.345,26.17-3.345c24.583,0,49.488,8.937,70.122,25.164
				c21.106,16.597,36.712,39.47,45.138,66.146c0.273,0.536,0.543,1.378,0.781,2.709c0.134,0.74-0.332,1.455-1.062,1.635
				c-0.115,0.027-0.228,0.042-0.341,0.042c-0.61,0-1.171-0.393-1.361-0.997c-8.101-25.733-23.13-47.787-43.463-63.773
				c-19.793-15.566-43.659-24.138-67.205-24.138c-8.423,0-16.842,1.077-25.022,3.196c-58.854,15.268-92.855,81.196-75.796,146.967
				c7.035,27.123,22.288,51.501,42.949,68.644c20.323,16.863,45.075,26.149,69.698,26.149c0.937,0,1.875-0.013,2.813-0.04
				c0.013,0,0.025,0,0.038,0c0.698,0,1.296,0.504,1.409,1.194c0.114,0.704-0.308,1.386-0.989,1.595
				c-0.735,0.226-2.318,0.306-2.786,0.324C330.555,446.266,329.577,446.28,328.597,446.28L328.597,446.28z"/>
			<path fill="#1A1A1A" d="M316.631,192.848c49.823,0,96.843,36.15,113.931,90.417c-0.004-0.021-0.005-0.031-0.003-0.031
				c0.03,0,0.656,2.151,0.709,2.456c-16.803-53.364-63.031-88.907-112.027-88.907c-8.421,0-16.933,1.052-25.381,3.243
				c-59.71,15.487-94.103,82.065-76.819,148.704c14.838,57.209,62.932,95.862,114.028,95.862c0.946,0,1.903-0.014,2.852-0.04
				c-0.545,0.167-2.058,0.246-2.424,0.26c-0.971,0.027-1.933,0.041-2.901,0.041c-51.954,0-100.811-39.302-115.901-97.477
				c-17.578-67.772,17.4-135.479,78.125-151.23C299.414,193.917,308.063,192.848,316.631,192.848L316.631,192.848z M316.631,189.996
				c-8.932,0-17.857,1.141-26.528,3.39c-30.165,7.824-55.11,28.266-70.244,57.559c-15.079,29.188-18.604,63.689-9.926,97.147
				c7.38,28.452,23.385,54.033,45.065,72.032c21.423,17.786,47.56,27.581,73.596,27.581c1.003,0,1.979-0.014,2.981-0.042
				c0.678-0.025,2.29-0.111,3.18-0.384c1.364-0.418,2.21-1.78,1.979-3.189c-0.228-1.381-1.422-2.389-2.813-2.389
				c-0.027,0-0.055,0-0.082,0.001c-0.915,0.025-1.847,0.039-2.771,0.039c-51.2,0-96.954-38.542-111.267-93.726
				c-16.862-65.011,16.682-130.16,74.774-145.228c8.063-2.091,16.362-3.152,24.665-3.152c48.246,0,93.195,35.739,109.308,86.912
				c0.381,1.21,1.5,1.996,2.718,1.996c0.224,0,0.451-0.026,0.678-0.082c1.459-0.355,2.393-1.782,2.134-3.262
				c-0.021-0.122-0.065-0.375-0.434-1.645c-0.208-0.718-0.458-1.579-0.979-2.223c0.275,0.305,0.488,0.671,0.616,1.078
				c-8.5-26.997-24.285-50.146-45.646-66.944C366.75,199.041,341.533,189.996,316.631,189.996L316.631,189.996z"/>
		</g>
	</g>
	<g>
		<path fill="#808080" d="M326.041,434.462c-25.278,0-48.178-10.475-64.478-29.499c-20.253-23.632-28.109-57.907-22.125-96.51
			c0.182-1.164,1.185-2.012,2.347-2.012c0.061,0,0.122,0.002,0.182,0.006c1.235,0.094,2.192,1.125,2.196,2.364
			c0.029,11.154,2.15,22.112,6.307,32.575c13.544,34.093,45.996,56.121,82.677,56.121c11.233,0,22.27-2.121,32.805-6.306
			c19.711-7.831,35.994-22.466,45.852-41.212c9.753-18.542,12.674-39.962,8.229-60.315c-0.271-1.252,0.494-2.494,1.736-2.81
			c0.196-0.05,0.394-0.073,0.588-0.073c1.032,0,1.979,0.676,2.28,1.712c8.827,30.331,3.287,64.815-15.203,94.611
			c-16.567,26.702-41.573,45.343-66.89,49.865C337.04,433.964,331.487,434.462,326.041,434.462L326.041,434.462z"/>
		<path fill="#1A1A1A" d="M422.354,289.167c17.863,61.377-26.903,131.946-80.229,141.475c-5.429,0.971-10.803,1.445-16.083,1.445
			c-52.827,0-95.991-47.583-84.256-123.27c0.029,11.141,2.113,22.465,6.475,33.446c14.226,35.807,48.566,57.621,84.885,57.621
			c11.216,0,22.625-2.082,33.684-6.475C408.969,376.668,431.725,332.062,422.354,289.167L422.354,289.167z M422.357,284.413
			c-0.388,0-0.782,0.048-1.175,0.147c-2.483,0.632-4.019,3.118-3.472,5.621c9.073,41.534-13.063,83.089-52.636,98.81
			c-10.254,4.074-20.997,6.14-31.929,6.14c-35.7,0-67.285-21.44-80.468-54.623c-4.044-10.183-6.11-20.85-6.139-31.704
			c-0.006-2.481-1.92-4.54-4.394-4.728c-0.122-0.009-0.243-0.014-0.363-0.014c-2.323,0-4.331,1.694-4.693,4.025
			c-6.092,39.298,1.958,74.251,22.669,98.42c16.76,19.559,40.301,30.331,66.284,30.331c5.586,0,11.278-0.511,16.919-1.52
			c13.358-2.387,26.307-8.289,38.487-17.543c11.478-8.721,21.853-20.273,30.003-33.406c8.838-14.242,15.004-30.234,17.832-46.246
			c3.074-17.409,2.278-34.328-2.366-50.286C426.315,285.768,424.423,284.413,422.357,284.413L422.357,284.413z"/>
	</g>
	<g>
		<g>
			<path fill="#FBB03B" d="M341.845,371.433c-12.103,0-24.804-2.607-37.747-7.748c-1.15-0.457-1.758-1.725-1.393-2.911
				c0.314-1.014,1.249-1.675,2.271-1.675c0.171,0,0.346,0.019,0.521,0.058c4.484,1.01,9.091,1.522,13.694,1.522
				c3.224,0,6.488-0.252,9.697-0.75c34.183-5.304,57.678-37.425,52.377-71.605c-4.73-30.497-30.526-52.837-61.338-53.119
				c-1.283-0.011-2.323-1.037-2.354-2.317c-0.032-1.281,0.957-2.355,2.235-2.432c1.414-0.083,2.853-0.125,4.275-0.125
				c22.226,0,44.662,10.161,61.555,27.875c15.03,15.76,23.164,35.058,22.313,52.943
				C406.269,346.644,379.084,371.433,341.845,371.433L341.845,371.433z"/>
			<path fill="#1A1A1A" d="M324.082,232.708c43.875,0,83.273,40.919,81.497,78.33c-1.568,33.054-26.92,58.017-63.733,58.017
				c-11.324,0-23.736-2.363-36.869-7.579c4.603,1.037,9.365,1.58,14.22,1.58c3.317,0,6.679-0.254,10.059-0.778
				c35.533-5.513,59.87-38.786,54.358-74.318c-4.956-31.95-32.357-54.843-63.664-55.13
				C321.332,232.748,322.707,232.708,324.082,232.708L324.082,232.708z M324.082,227.955c-1.468,0-2.952,0.044-4.413,0.13
				c-2.558,0.151-4.535,2.302-4.472,4.863c0.064,2.561,2.146,4.611,4.708,4.634c29.643,0.271,54.46,21.764,59.011,51.105
				c5.102,32.886-17.504,63.791-50.39,68.893c-3.09,0.479-6.229,0.722-9.33,0.722c-4.43,0-8.862-0.493-13.176-1.464
				c-0.351-0.079-0.701-0.117-1.047-0.117c-2.042,0-3.911,1.323-4.538,3.35c-0.732,2.37,0.48,4.905,2.786,5.821
				c13.225,5.252,26.219,7.915,38.624,7.915c19.05,0,35.76-6.186,48.323-17.889c12.171-11.336,19.329-27.196,20.158-44.657
				c0.88-18.531-7.492-38.468-22.969-54.697C370.019,238.383,346.955,227.955,324.082,227.955L324.082,227.955z"/>
		</g>
		<g>
			<path fill="#808080" d="M317.463,346.645c-0.244,0-0.491-0.04-0.736-0.118c-14.518-4.735-26.773-16.317-33.623-31.781
				c-6.242-14.091-6.845-28.808-1.656-40.375c7.057-15.739,21.363-25.136,38.27-25.136c13.665,0,27.406,6.097,39.732,17.634
				c0.906,0.848,1.008,2.25,0.234,3.217c-0.469,0.585-1.159,0.896-1.859,0.896c-0.46,0-0.925-0.135-1.331-0.41
				c-4.231-2.867-8.927-4.893-13.956-6.018c-2.943-0.66-5.952-0.993-8.939-0.993c-18.88,0-35.58,13.39-39.71,31.841
				c-4.378,19.555,5.91,39.179,24.465,46.663c1.188,0.479,1.782,1.814,1.343,3.017C319.346,346.044,318.436,346.645,317.463,346.645
				L317.463,346.645z"/>
			<path fill="#1A1A1A" d="M319.716,251.612c12.111,0,25.525,5.214,38.11,16.991c-4.355-2.952-9.326-5.15-14.771-6.37
				c-3.172-0.71-6.338-1.051-9.459-1.051c-19.734,0.001-37.537,13.639-42.029,33.7c-4.678,20.891,6.671,41.632,25.895,49.385
				c-28.694-9.355-44.315-45.589-33.848-68.924C290.259,260.527,303.875,251.61,319.716,251.612L319.716,251.612z M319.717,246.858
				c-8.709,0-17.045,2.451-24.109,7.089c-7.054,4.632-12.701,11.358-16.33,19.45c-5.464,12.182-4.862,27.604,1.652,42.311
				c7.122,16.078,19.9,28.134,35.059,33.077c0.489,0.159,0.985,0.235,1.475,0.235c1.945,0,3.765-1.204,4.465-3.128
				c0.877-2.407-0.313-5.076-2.688-6.035c-17.47-7.045-27.157-25.524-23.034-43.938c3.89-17.374,19.615-29.984,37.392-29.986
				c0,0,0.001,0,0.002,0c2.812,0,5.644,0.315,8.418,0.936c4.738,1.062,9.16,2.968,13.143,5.667c0.814,0.552,1.742,0.819,2.663,0.819
				c1.4,0,2.782-0.618,3.717-1.787c1.548-1.939,1.345-4.742-0.466-6.437C348.299,253.179,333.998,246.859,319.717,246.858
				L319.717,246.858z"/>
		</g>
	</g>
</g>
<g id="border">
	<path fill="#FBB03B" d="M495,0c55.229,0,100,44.771,100,100v395c0,55.229-44.771,100-100,100H100C44.771,595,0,550.229,0,495V100
		C0,44.771,44.771,0,100,0H495L495,0z M495,20H100c-44.112,0-80,35.888-80,80v395c0,44.112,35.888,80,80,80h395
		c44.112,0,80-35.888,80-80V100C575,55.888,539.112,20,495,20L495,20z"/>
	<path fill="none" stroke="#B2B2B2" stroke-width="3" d="M562,492.81c0,38.213-31.096,69.19-69.453,69.19H102.453
		C64.095,562,33,531.022,33,492.81V104.19C33,65.978,64.095,35,102.453,35h390.094C530.904,35,562,65.978,562,104.19V492.81z"/>
	<polygon fill="#FFFFFF" points="504.856,80.146 407.551,81.309 504.594,82.24 467.359,104.115 506.775,84.16 507.851,187.893 
		509.045,84.334 546.019,129.714 510.79,82.676 583.717,81.542 511.837,80.582 549.74,58.037 509.481,78.487 508.316,6.607 
		506.95,78.138 477.541,44.016 	"/>
</g>
</svg>
